Coordinates
version=1
nRows=17
nColumns=36
inDegrees=yes

Units are S.I. units (second, meters, Newtons, ...)
If the header above contains a line with 'inDegrees', this indicates whether rotational values are in degrees (yes) or radians (no).

endheader
time	pelvis_tilt	pelvis_list	pelvis_rotation	pelvis_tx	pelvis_ty	pelvis_tz	hip_flexion_r	hip_adduction_r	hip_rotation_r	knee_angle_r	knee_angle_r_beta	ankle_angle_r	subtalar_angle_r	mtp_angle_r	hip_flexion_l	hip_adduction_l	hip_rotation_l	knee_angle_l	knee_angle_l_beta	ankle_angle_l	subtalar_angle_l	mtp_angle_l	lumbar_extension	lumbar_bending	lumbar_rotation	arm_flex_r	arm_add_r	arm_rot_r	elbow_flex_r	pro_sup_r	arm_flex_l	arm_add_l	arm_rot_l	elbow_flex_l	pro_sup_l
      0.00000000	      3.96258637	     -2.49325598	     -1.00946471	      0.88321320	      0.82871797	      0.77447805	     -2.91546705	      6.33958583	      2.21056736	      8.18356551	      0.14283016	      3.34899345	    -10.57325203	     -7.18778058	     19.99829982	     -2.49030736	      1.71435719	     49.64105840	      0.86639991	      2.05263650	    -12.08733149	     -7.18778058	    -13.31382984	      4.17930412	      1.91028133	     10.25168598	    -13.74808701	     -4.54388089	     26.29722324	     90.07865680	      9.61182157	     -8.99605300	      4.84024656	     13.12343060	     88.60390301
      0.01666670	      2.44542856	     -2.65523021	     -1.22568791	      0.88353517	      0.82436202	      0.77314643	     -2.11477569	      6.57035370	      2.33021106	      8.04213949	      0.14036181	      5.93722126	     -8.65035551	     -7.20657470	     23.60319149	     -2.90305092	      0.94198730	     47.14502084	      0.82283584	      4.10850053	    -10.05092995	     -7.20657470	    -11.14946870	      4.43754414	      2.89874917	     10.08390328	    -14.48604924	     -4.92249146	     27.02326896	     89.67496169	      9.10398893	     -8.34249137	      4.44580797	     12.46149419	     88.70687971
      0.03333330	      2.01786182	     -2.32073901	     -1.21904198	      0.88200679	      0.82201179	      0.77146817	     -3.25378323	      6.21483038	      2.99815299	      6.61913649	      0.11552573	      7.32198479	     -8.00174789	     -7.20711755	     25.03225199	     -2.33384444	      1.28494768	     42.74715555	      0.74607861	      4.67950778	     -9.92515561	     -7.20711755	    -10.15073943	      4.30329697	      3.16500566	     10.72028049	    -15.09856401	     -4.77962526	     27.42856731	     90.21428376	      8.85456806	     -8.18164959	      4.17358198	     11.21026571	     89.59024701
      0.05000000	      1.00327027	     -1.95127533	     -1.18518194	      0.88150912	      0.81849146	      0.77029163	     -3.98974464	      5.81777132	      2.87036711	      5.02706231	      0.08773879	      8.68224244	     -6.19665217	     -7.23583789	     26.79762621	     -1.83917025	      1.41838932	     37.41038426	      0.65293438	      4.76442509	     -9.77469829	     -7.23583789	     -8.31081244	      4.16819214	      3.04694981	     11.29744585	    -15.69021021	     -2.93484689	     27.55057344	     89.34660251	      8.06946867	     -8.07307792	      3.19559119	     10.36365620	     89.91348191
      0.06666670	      0.77467346	     -1.73169165	     -1.28149172	      0.88132288	      0.81486625	      0.76979121	     -6.03953389	      5.69271127	      3.31282571	      3.38045805	      0.05900012	      9.39984774	     -4.95917102	     -7.31160195	     27.59651548	     -1.51310989	      1.83612029	     31.83801639	      0.55567821	      4.90337960	     -9.80235185	     -7.31160195	     -7.58984496	      4.09370293	      2.74148375	     12.38394612	    -15.94662166	     -1.99844890	     27.69127364	     91.61231568	      7.13574263	     -8.01713000	     -0.87394817	     10.42475841	     95.53984469
      0.08333330	      0.50684885	     -1.60534263	     -1.39551492	      0.88074586	      0.81065680	      0.76959829	     -8.11524582	      5.67584758	      4.35548114	      2.10602502	      0.03675707	      9.49375439	     -4.65442391	     -7.29582858	     28.18579657	     -1.42065842	      2.41051529	     25.72962219	      0.44906662	      5.14482756	     -9.05530253	     -7.29582858	     -6.86151480	      4.01460513	      3.05179989	     13.01734566	    -16.10704168	     -1.97105133	     27.89440550	     91.36428180	      6.84272354	     -8.01746631	     -1.00966708	      9.75493139	     95.56869758
      0.10000000	      0.72110951	     -1.41630951	     -1.23814574	      0.87910426	      0.80768115	      0.76906978	    -10.58015134	      5.53758686	      4.38990329	      1.20506222	      0.02103230	     10.07441841	     -3.00811890	     -7.31055059	     27.88051588	     -1.27182952	      3.34946692	     19.17669828	      0.33469652	      5.46627490	     -7.52478935	     -7.31055059	     -7.10467211	      3.82702758	      2.62205821	     13.88651942	    -16.18643518	     -0.91068986	     29.06618263	     90.66457185	      6.33105158	     -8.28769765	     -1.01143838	      9.92290199	     95.23425204
      0.11666670	      0.39066810	     -1.35957923	     -1.20149064	      0.87714610	      0.80491949	      0.76893131	    -12.00703719	      5.50826534	      5.40360746	      0.78485815	      0.01369836	     10.18716584	     -3.23217562	     -7.31635379	     28.09499405	     -1.42194032	      4.64209041	     13.24874992	      0.23123431	      5.72731793	     -6.12068702	     -7.31635379	     -6.80590439	      3.71246550	      2.73690794	     14.52687114	    -16.16887697	     -0.80733639	     29.74839960	     88.43572661	      6.13455710	     -8.43814604	     -1.02812685	     10.00378419	     93.17551571
      0.13333330	      0.42982077	     -1.26005975	     -0.96271256	      0.87571840	      0.80299268	      0.76809963	    -13.44549033	      5.39227161	      4.52699173	      0.60877121	      0.01062506	     11.63644704	     -0.63060326	     -7.33459450	     27.93316252	     -1.46678704	      6.09252725	      8.43555542	      0.14722822	      6.26023837	     -4.39432293	     -7.33459450	     -7.16083142	      3.65822618	      2.15123103	     15.57961337	    -16.20406400	      0.24683850	     30.52378477	     88.59721150	      5.78589219	     -8.74158736	     -0.61797105	     10.22201211	     93.66516863
      0.15000000	     -0.01206838	     -1.23498572	     -0.87982638	      0.87502968	      0.80041178	      0.76661854	    -14.08387050	      5.34847135	      4.89183445	      0.52453010	      0.00915478	     12.31999562	     -0.56298917	     -7.33795335	     28.44674914	     -1.62229371	      7.54847114	      5.16358255	      0.09012152	      6.50446802	     -3.21127723	     -7.33795335	     -6.91945355	      3.70230747	      2.11365369	     16.09895422	    -15.94744525	      0.24875415	     31.13830361	     88.79402310	      5.74594438	     -8.86422688	     -0.72562618	     10.41991634	     93.88353127
      0.16666670	      0.09489301	     -1.03344549	     -0.76852393	      0.87613032	      0.79787700	      0.76471858	    -15.26121774	      5.07837958	      5.09886766	      0.48788796	      0.00851525	     13.23842615	     -0.16100115	     -7.34392394	     28.39530387	     -1.47435014	      8.51680373	      3.37139290	      0.05884191	      6.89450533	     -2.26621900	     -7.34392394	     -7.24335471	      3.43928349	      1.88995045	     16.54465855	    -15.72445766	      0.21375253	     31.98362510	     89.23566817	      5.76667316	     -9.04465212	     -0.96010154	     10.79048127	     94.36257161
      0.18333330	      0.07372698	     -0.67138004	     -0.58003318	      0.88016695	      0.79376516	      0.76328632	    -16.38581245	      4.63578589	      5.33158284	      0.49763229	      0.00868532	     14.22839502	     -0.11993766	     -7.34786673	     28.47458533	     -0.98721721	      9.18593016	      2.99000327	      0.05218540	      6.93258674	     -1.87590119	     -7.34786673	     -7.18719995	      2.97466443	      1.86390887	     16.58936587	    -15.52703548	      0.21561781	     32.42318514	     89.52501008	      5.86796032	     -9.23197276	     -1.11074355	     10.93924829	     94.66793411
      0.20000000	      0.39142655	     -0.09399212	     -0.40868370	      0.88605008	      0.78951759	      0.76132090	    -18.07578175	      3.90553979	      5.63285869	      0.51726618	      0.00902800	     15.26964407	     -0.18198308	     -7.35433625	     27.98161829	     -0.12502918	      9.43539542	      3.59222338	      0.06269613	      6.59008776	     -2.03619512	     -7.35433625	     -7.31569398	      2.20780428	      1.91116471	     16.23349424	    -15.35034127	      0.15770148	     32.95989591	     90.02175117	      6.09470102	     -9.38326933	     -1.24345974	     10.89894664	     95.23615515
      0.21666670	      0.42705110	      0.59252516	     -0.21866140	      0.89174988	      0.78602960	      0.75683844	    -19.65806533	      2.99769729	      5.93637454	      0.58109213	      0.01014197	     16.09728311	     -0.53219552	     -7.35685193	     27.73735346	      1.06073652	      9.28023010	      5.21728079	      0.09105873	      5.95387467	     -2.33879405	     -7.35685193	     -6.83181040	      1.30466798	      1.89392474	     15.48396768	    -15.14163785	      0.15146282	     32.95620420	     90.21176068	      6.08539119	     -9.46551644	     -1.25031927	     10.80854876	     95.45526349
      0.23333330	      0.74527300	      1.41839866	     -0.04273041	      0.89633880	      0.78363777	      0.75022444	    -21.65280791	      1.87972521	      6.25316468	      0.71335882	      0.01245046	     16.17279898	     -1.46879112	     -7.41037793	     27.08223851	      2.55789171	      9.12073577	      7.40249199	      0.12919786	      4.60515905	     -3.29397602	     -7.41037793	     -6.63432971	      0.23360974	      2.68504740	     13.60703979	    -14.93626641	     -2.86511855	     33.84967322	     94.42988673	      6.89998939	     -9.35649951	     -1.09496236	      9.97430778	     99.76374988
      0.25000000	      1.06189877	      2.24085508	      0.21163128	      0.90021983	      0.78122025	      0.74439583	    -23.57777273	      0.80068290	      6.39922948	      1.11364160	      0.01943671	     15.32709744	     -2.93879092	     -7.42646810	     26.41496180	      4.14543827	      8.97153912	      9.93605151	      0.17341681	      3.01225774	     -4.23430460	     -7.42646810	     -6.45173056	     -0.78315743	      2.54373457	     12.54347634	    -14.95828590	     -2.09477208	     33.76222370	     92.51139851	      7.01500261	     -9.36599623	      0.03595159	      9.66242314	     97.64344823
      0.26666670	      1.21401913	      2.95991825	      0.60317330	      0.90274896	      0.77984127	      0.74165631	    -24.87044818	     -0.06756571	      5.79783198	      2.29888334	      0.04012308	     13.95644718	     -4.17010032	     -7.43444157	     25.93644550	      5.63860278	      9.26981076	     12.45148639	      0.21731943	      1.13884261	     -5.61063513	     -7.43444157	     -6.06898173	     -1.67732724	      2.62720935	     11.21976776	    -14.91045337	     -2.68829848	     33.40771321	     92.83586068	      7.26243796	     -9.34497483	      1.04502902	      9.48044469	     97.94800728
